<svg viewBox="0 0 350 21.454139892792032" class="looka-1j8o68f" xmlns="http://www.w3.org/2000/svg">
  <defs id="SvgjsDefs1197" />
  <g id="SvgjsG1198" featurekey="K5GtsI-0" transform="matrix(1.4574823976607183,0,0,1.4574823976607183,-0.8451575073510802,-8.161901982885434)" fill="#ffffff">
    <path d="M11.52 16.42 l1.8 1.82 c-1.44 1.42 -3.3 2.08 -5.32 2.08 c-5.2 0 -7.4 -3.58 -7.42 -7.22 c-0.02 -3.66 2.36 -7.38 7.42 -7.38 c1.9 0 3.7 0.72 5.14 2.14 l-1.76 1.7 c-0.92 -0.9 -2.16 -1.32 -3.38 -1.32 c-3.38 0 -4.84 2.52 -4.82 4.86 c0.02 2.32 1.36 4.74 4.82 4.74 c1.22 0 2.6 -0.5 3.52 -1.42 z M21.38 5.720000000000001 c4.82 0 7.22 3.7 7.18 7.36 c-0.04 3.62 -2.26 7.24 -7.18 7.24 s-7.2 -3.54 -7.2 -7.22 s2.36 -7.38 7.2 -7.38 z M21.38 8.12 c-3.3 0 -4.66 2.66 -4.6 5.02 c0.06 2.3 1.3 4.76 4.6 4.76 s4.54 -2.48 4.58 -4.78 c0.04 -2.36 -1.28 -5 -4.58 -5 z M39.7 14.68 l0 -8.7 l2.64 0 l0 14.02 l-1.64 0 l0 0.02 l-7.36 -9.46 l0 9.44 l-2.64 0 l0 -14 l2.14 0 z M47.4 20 l-2.64 0 l0 -13.98 l10.06 0 l0 2.54 l-7.42 0 l0 3.82 l7.02 0 l0 2.44 l-7.02 0 l0 5.18 z M67.08 17.4 l0 2.6 l-10.48 0 l0 -14 l10.48 0 l0 2.56 l-7.86 0 l0 3.22 l7.58 0 l0 2.46 l-7.58 0 l0 3.16 l7.86 0 z M81.54 19.82 l0 0.18 l-3.14 0 l-4.08 -4.68 l-2.54 0 l0 4.68 l-2.64 0 l0 -14.02 c2.22 0 4.44 0.02 6.66 0.02 c3.3 0.02 5.04 2.22 5.04 4.64 c0 1.92 -0.88 3.86 -3.54 4.4 z M75.8 8.46 l-4.02 0 l0 4.48 l4.02 0 c1.68 0 2.4 -1.12 2.4 -2.24 s-0.74 -2.24 -2.4 -2.24 z M93.06 17.4 l0 2.6 l-10.48 0 l0 -14 l10.48 0 l0 2.56 l-7.86 0 l0 3.22 l7.58 0 l0 2.46 l-7.58 0 l0 3.16 l7.86 0 z M104.72 14.68 l0 -8.7 l2.64 0 l0 14.02 l-1.64 0 l0 0.02 l-7.36 -9.46 l0 9.44 l-2.64 0 l0 -14 l2.14 0 z M120.32000000000001 16.42 l1.8 1.82 c-1.44 1.42 -3.3 2.08 -5.32 2.08 c-5.2 0 -7.4 -3.58 -7.42 -7.22 c-0.02 -3.66 2.36 -7.38 7.42 -7.38 c1.9 0 3.7 0.72 5.14 2.14 l-1.76 1.7 c-0.92 -0.9 -2.16 -1.32 -3.38 -1.32 c-3.38 0 -4.84 2.52 -4.82 4.86 c0.02 2.32 1.36 4.74 4.82 4.74 c1.22 0 2.6 -0.5 3.52 -1.42 z M134.04000000000002 17.4 l0 2.6 l-10.48 0 l0 -14 l10.48 0 l0 2.56 l-7.86 0 l0 3.22 l7.58 0 l0 2.46 l-7.58 0 l0 3.16 l7.86 0 z M152.32000000000002 20.02 l0 -10.16 l-4.56 6.08 l-0.52 0 l-4.46 -6.1 l0 10.18 l-2.64 0 l0 -14 l3.04 0 l4.38 6.02 l4.38 -6.02 l3.02 0 l0 14 l-2.64 0 z M168.56 20 l-1.18 -2.64 l-7.32 0 l-1.2 2.64 l-2.86 0 l6.28 -14 l2.88 0 l6.28 14 l-2.88 0 z M166.32 14.9 l-2.6 -5.96 l-2.6 5.96 l5.2 0 z M181.62 14.68 l0 -8.7 l2.64 0 l0 14.02 l-1.64 0 l0 0.02 l-7.36 -9.46 l0 9.44 l-2.64 0 l0 -14 l2.14 0 z M197.79999999999998 20 l-1.18 -2.64 l-7.32 0 l-1.2 2.64 l-2.86 0 l6.28 -14 l2.88 0 l6.28 14 l-2.88 0 z M195.56 14.9 l-2.6 -5.96 l-2.6 5.96 l5.2 0 z M213.28 7.74 l-1.64 1.68 c-0.94 -0.9 -2.34 -1.4 -3.56 -1.4 c-3 0 -4.82 2.28 -4.82 5.16 c0 2.3 1.34 4.68 4.82 4.68 c1.1 0 2.06 -0.24 3.16 -1.12 l0 -2.48 l-3.58 0 l0 -2.36 l6 0 l0 5.9 c-1.38 1.58 -3.12 2.52 -5.58 2.52 c-5.26 0 -7.4 -3.46 -7.4 -7.14 c0 -3.94 2.46 -7.58 7.4 -7.58 c1.88 0 3.76 0.72 5.2 2.14 z M226.26 17.4 l0 2.6 l-10.48 0 l0 -14 l10.48 0 l0 2.56 l-7.86 0 l0 3.22 l7.58 0 l0 2.46 l-7.58 0 l0 3.16 l7.86 0 z M240.72 19.82 l0 0.18 l-3.14 0 l-4.08 -4.68 l-2.54 0 l0 4.68 l-2.64 0 l0 -14.02 c2.22 0 4.44 0.02 6.66 0.02 c3.3 0.02 5.04 2.22 5.04 4.64 c0 1.92 -0.88 3.86 -3.54 4.4 z M234.98 8.46 l-4.02 0 l0 4.48 l4.02 0 c1.68 0 2.4 -1.12 2.4 -2.24 s-0.74 -2.24 -2.4 -2.24 z" />
  </g>
</svg>